<svg xmlns="http://www.w3.org/2000/svg">
  <symbol id="home" viewBox="0 0 24 24"><path d="M3 10 12 3l9 7M5 9v12h5v-7h4v7h5V9"/></symbol>
  <symbol id="calendar" viewBox="0 0 24 24"><rect x="4" y="5" width="16" height="16" rx="2"/><path d="M8 3v4m8-4v4M4 10h16m-11 4h1m4 0h1m-6 4h1m4 0h1"/></symbol>
  <symbol id="leaf" viewBox="0 0 24 24"><path d="M20 3C9 2 3 7 5 14c2 6 11 5 13 0 2-4 2-8 2-11ZM5 21 16 8"/></symbol>
  <symbol id="study" viewBox="0 0 24 24"><path d="m2 8 10-5 10 5-10 5-10-5Zm4 2v7c4 3 8 3 12 0v-7m4-2v9"/></symbol>
  <symbol id="case" viewBox="0 0 24 24"><rect x="3" y="7" width="18" height="14" rx="2"/><path d="M8 7V4h8v3M3 12h18m-12 0v3h6v-3"/></symbol>
  <symbol id="chart" viewBox="0 0 24 24"><path d="M4 21v-6h3v6m4 0V9h3v12m4 0V3h3v18"/></symbol>
  <symbol id="heart" viewBox="0 0 24 24"><path d="M12 21C9 17 2 13 3 7c1-5 7-5 9-1 2-4 8-4 9 1 1 6-6 10-9 14Z"/></symbol>
  <symbol id="file" viewBox="0 0 24 24"><path d="M6 2h8l5 5v15H6V2Zm8 0v6h5M9 12h7m-7 4h7"/></symbol>
  <symbol id="phone" viewBox="0 0 24 24"><rect x="6" y="2" width="12" height="20" rx="2"/><path d="M10 18h4"/></symbol>
  <symbol id="book" viewBox="0 0 24 24"><path d="M12 4v17M2 4c4-2 7-2 10 0 3-2 6-2 10 0v16c-4-2-7-2-10 0-3-2-6-2-10 0V4Z"/></symbol>
  <symbol id="research" viewBox="0 0 24 24"><path d="m9 3 1-2h4l1 2 3 2 2-1 2 4-2 2v4l2 2-2 4-2-1-3 2-1 2h-4l-1-2-3-2-2 1-2-4 2-2v-4L2 8l2-4 2 1 3-2Z"/><circle cx="12" cy="12" r="4"/></symbol>
  <symbol id="currency" viewBox="0 0 24 24"><circle cx="12" cy="12" r="10"/><path d="M16 7H10a3 3 0 0 0 0 6h4a3 3 0 0 1 0 6H8m4-15v17"/></symbol>
  <symbol id="people" viewBox="0 0 24 24"><circle cx="12" cy="7" r="3"/><path d="M6 21v-3a6 6 0 0 1 12 0v3M3 10a3 3 0 1 0 1-6m16 0a3 3 0 1 1 1 6M1 20v-3a4 4 0 0 1 4-4m14 0a4 4 0 0 1 4 4v3"/></symbol>
  <symbol id="clipboard" viewBox="0 0 24 24"><path d="M8 4H5v18h14V4h-3M8 11h8m-8 5h8"/><rect x="8" y="2" width="8" height="5" rx="2"/></symbol>
  <symbol id="info" viewBox="0 0 24 24"><circle cx="12" cy="12" r="10"/><path d="M12 7v1m0 4v5"/></symbol>
  <symbol id="arrow" viewBox="0 0 24 24"><path d="M3 12h18m-6-6 6 6-6 6"/></symbol>
  <symbol id="down" viewBox="0 0 24 24"><path d="m5 8 7 7 7-7"/></symbol>
  <symbol id="play" viewBox="0 0 24 24"><path d="m4 3 17 9L4 21V3Z"/></symbol>
  <symbol id="menu" viewBox="0 0 24 24"><path d="M3 6h18M3 12h18M3 18h18"/></symbol>
</svg>
